# xmcd
#
# Track frame offsets: 
#        150
#        24023
#        46404
#        66776
#        89606
#        107300
#        141387
#        159427
#        181550
#        207717
#        221898
#        240337
#        261856
#        282994
#
# Disc length: 4120 seconds
#
# Revision: 0
# Processed by: cddbd v1.5.2PL0 Copyright (c) Steve Scherf et al.
# Submitted via: ExactAudioCopy v0.99pb3
#
DISCID=c410160e
DTITLE=Zac Harmon - From The Root
DYEAR=2009
DGENRE=Blues
TTITLE0=Don't Give Me Another Reason
TTITLE1=Hattie Mae
TTITLE2=since You Been Gone
TTITLE3=Back Bitin' Back Stabbers
TTITLE4=That's What A Woman Needs
TTITLE5=The Price Of Lovin' You
TTITLE6=Honey Bee
TTITLE7=Smile On Your Face
TTITLE8=Enough!
TTITLE9=Keep The Blues Alive
TTITLE10=The Older Woamn
TTITLE11=Scratch
TTITLE12=Want Ads
TTITLE13=Man Is Not Meant To Be Alone
EXTD=
EXTT0=
EXTT1=
EXTT2=
EXTT3=
EXTT4=
EXTT5=
EXTT6=
EXTT7=
EXTT8=
EXTT9=
EXTT10=
EXTT11=
EXTT12=
EXTT13=
PLAYORDER=
